# This file uses centimeters as units for non-parametric coordinates.

mtllib Hat.mtl
g default
v 1.044060 4.488902 -1.039207
v -1.034358 4.488902 -1.039207
v 1.044060 4.822252 -1.039207
v -1.034358 4.822252 -1.039207
v 1.044060 4.822252 1.039207
v -1.034358 4.822252 1.039207
v 1.044060 4.488902 1.039207
v -1.034358 4.488902 1.039207
v -0.487428 4.822252 -0.484110
v 0.497130 4.822252 -0.484110
v -0.487428 4.822252 0.484110
v 0.497130 4.822252 0.484110
v -0.487428 5.024408 -0.484110
v 0.497130 5.024408 -0.484110
v -0.487428 5.024408 0.484110
v 0.497130 5.024408 0.484110
v -0.273631 5.024408 -0.378980
v -0.433970 5.024408 -0.431539
v -0.380524 5.024408 -0.273861
v -0.380524 5.207994 -0.273861
v -0.273631 5.207994 -0.378980
v 0.390226 5.024408 -0.273861
v 0.443673 5.024408 -0.431539
v 0.283334 5.024408 -0.378980
v 0.390226 5.207994 -0.273861
v 0.283334 5.207994 -0.378980
v -0.380524 5.024408 0.273861
v -0.433970 5.024408 0.431539
v -0.273631 5.024408 0.378980
v -0.273631 5.207994 0.378980
v -0.380524 5.207994 0.273861
v 0.283334 5.024408 0.378980
v 0.443673 5.024408 0.431539
v 0.390226 5.024408 0.273861
v 0.390226 5.207994 0.273861
v 0.283334 5.207994 0.378980
v 0.283334 5.207994 -0.492720
v 0.283334 5.024408 -0.492720
v -0.273631 5.024408 -0.492720
v -0.273631 5.207994 -0.492720
v -0.496183 5.207994 -0.273861
v -0.496183 5.024408 -0.273861
v -0.496183 5.024408 0.273861
v -0.496183 5.207994 0.273861
v -0.273631 5.207994 0.492720
v -0.273631 5.024408 0.492720
v 0.283334 5.024408 0.492720
v 0.283334 5.207994 0.492720
v 0.505886 5.207994 0.273861
v 0.505886 5.024408 0.273861
v 0.505886 5.024408 -0.273861
v 0.505886 5.207994 -0.273861
vt 0.940654 0.711282
vt 0.750241 0.711282
vt 0.750241 0.799552
vt 0.940654 0.799552
vt 0.940654 0.799552
vt 0.750241 0.799552
vt 0.750241 0.711282
vt 0.940654 0.711282
vt 0.800347 0.799552
vt 0.890547 0.799552
vt 0.800347 0.799552
vt 0.890547 0.799552
vt 0.800347 0.853083
vt 0.890547 0.853083
vt 0.800347 0.853083
vt 0.890547 0.853083
vt 0.805245 0.853083
vt 0.819934 0.853083
vt 0.870960 0.853083
vt 0.885650 0.853083
vt 0.805245 0.853083
vt 0.810142 0.853083
vt 0.810142 0.853083
vt 0.885650 0.853083
vt 0.870960 0.853083
vt 0.819934 0.853083
vt 0.880753 0.853083
vt 0.880753 0.853083
vt 0.870960 0.901696
vt 0.870960 0.853083
vt 0.819934 0.853083
vt 0.819934 0.901696
vt 0.799545 0.901696
vt 0.799545 0.853083
vt 0.799545 0.853083
vt 0.799545 0.901696
vt 0.819934 0.901696
vt 0.819934 0.853083
vt 0.870960 0.853083
vt 0.870960 0.901696
vt 0.891349 0.901696
vt 0.891349 0.853083
vt 0.891349 0.853083
vt 0.891349 0.901696
vt 0.880753 0.901696
vt 0.870960 0.901696
vt 0.819934 0.901696
vt 0.810142 0.901696
vt 0.810142 0.901696
vt 0.819934 0.901696
vt 0.870960 0.901696
vt 0.880753 0.901696
vn 0.000000 0.000000 -1.000000
vn 0.000000 0.000000 -1.000000
vn 0.000000 0.000000 -1.000000
vn 0.000000 0.000000 -1.000000
vn 0.000000 0.000000 1.000000
vn 0.000000 0.000000 1.000000
vn 0.000000 0.000000 1.000000
vn 0.000000 0.000000 1.000000
vn 0.000000 -1.000000 0.000000
vn 0.000000 -1.000000 0.000000
vn 0.000000 -1.000000 0.000000
vn 0.000000 -1.000000 0.000000
vn -1.000000 0.000000 0.000000
vn -1.000000 0.000000 0.000000
vn -1.000000 0.000000 0.000000
vn -1.000000 0.000000 0.000000
vn 1.000000 0.000000 0.000000
vn 1.000000 0.000000 0.000000
vn 1.000000 0.000000 0.000000
vn 1.000000 0.000000 0.000000
vn 0.000000 1.000000 -0.000000
vn 0.000000 1.000000 -0.000000
vn 0.000000 1.000000 0.000000
vn 0.000000 1.000000 0.000000
vn 0.000000 1.000000 0.000000
vn 0.000000 1.000000 0.000000
vn 0.000000 1.000000 0.000000
vn 0.000000 1.000000 0.000000
vn 0.000000 1.000000 0.000000
vn 0.000000 1.000000 0.000000
vn 0.000000 1.000000 0.000000
vn 0.000000 1.000000 0.000000
vn 0.000000 1.000000 0.000000
vn 0.000000 1.000000 0.000000
vn 0.000000 1.000000 0.000000
vn 0.000000 1.000000 0.000000
vn 0.000000 1.000000 0.000000
vn 0.000000 1.000000 0.000000
vn 0.000000 1.000000 0.000000
vn 0.000000 1.000000 0.000000
vn 0.000000 1.000000 0.000000
vn 0.000000 1.000000 0.000000
vn 0.000000 1.000000 0.000000
vn 0.000000 1.000000 0.000000
vn 0.000000 1.000000 -0.000001
vn 0.000000 1.000000 -0.000001
vn 0.000000 1.000000 -0.000000
vn 0.000000 1.000000 -0.000001
vn 0.000000 1.000000 -0.000001
vn 0.000000 1.000000 -0.000000
vn 0.000000 1.000000 0.000000
vn 0.000000 1.000000 0.000000
vn 0.000000 1.000000 0.000000
vn 0.000000 1.000000 -0.000000
vn 0.000000 1.000000 0.000000
vn 0.000000 1.000000 0.000001
vn 0.000000 1.000000 0.000001
vn 0.000000 1.000000 0.000000
vn 0.000000 1.000000 0.000001
vn 0.000000 1.000000 0.000001
vn 0.000000 1.000000 0.000000
vn 0.000000 1.000000 0.000000
vn 0.000000 1.000000 0.000000
vn 0.000000 1.000000 -0.000000
vn 0.000000 0.000000 -1.000000
vn 0.000000 0.000000 -1.000000
vn 0.000000 0.000000 -1.000000
vn 0.000000 0.000000 -1.000000
vn -1.000000 0.000000 0.000000
vn -1.000000 0.000000 0.000000
vn -1.000000 0.000000 0.000000
vn -1.000000 0.000000 0.000000
vn 0.000000 0.000000 1.000000
vn 0.000000 0.000000 1.000000
vn 0.000000 0.000000 1.000000
vn 0.000000 0.000000 1.000000
vn 1.000000 0.000000 0.000000
vn 1.000000 0.000000 0.000000
vn 1.000000 0.000000 0.000000
vn 1.000000 0.000000 0.000000
vn 0.000000 1.000000 0.000000
vn 0.000000 1.000000 0.000000
vn 0.000000 1.000000 0.000000
vn 0.000000 1.000000 0.000000
vn 0.000000 1.000000 0.000000
vn 0.000000 1.000000 0.000000
vn 0.000000 1.000000 0.000000
vn 0.000000 1.000000 0.000000
vn -0.701167 0.000000 -0.712997
vn -0.701167 0.000000 -0.712997
vn -0.701167 0.000000 -0.712997
vn -0.701167 0.000000 -0.712997
vn 0.701167 0.000000 -0.712997
vn 0.701167 0.000000 -0.712997
vn 0.701167 0.000000 -0.712997
vn 0.701167 0.000000 -0.712997
vn -0.701167 0.000000 0.712997
vn -0.701167 0.000000 0.712997
vn -0.701167 0.000000 0.712997
vn -0.701167 0.000000 0.712997
vn 0.701167 0.000000 0.712997
vn 0.701167 0.000000 0.712997
vn 0.701167 0.000000 0.712997
vn 0.701167 0.000000 0.712997
vn 1.000000 0.000000 0.000000
vn 1.000000 0.000000 0.000000
vn 1.000000 0.000000 0.000000
vn 1.000000 0.000000 0.000000
vn 0.000000 -1.000000 0.000000
vn 0.000000 -1.000000 0.000000
vn 0.000000 -1.000000 0.000000
vn 0.000000 -1.000000 0.000000
vn -1.000000 0.000000 0.000000
vn -1.000000 0.000000 0.000000
vn -1.000000 0.000000 0.000000
vn -1.000000 0.000000 0.000000
vn 0.000000 1.000000 0.000000
vn 0.000000 1.000000 0.000000
vn 0.000000 0.000000 -1.000000
vn 0.000000 0.000000 -1.000000
vn 0.000000 0.000000 -1.000000
vn 0.000000 0.000000 -1.000000
vn 0.000000 -1.000000 0.000000
vn 0.000000 -1.000000 0.000000
vn 0.000000 -1.000000 0.000000
vn 0.000000 -1.000000 0.000000
vn 0.000000 0.000000 1.000000
vn 0.000000 0.000000 1.000000
vn 0.000000 0.000000 1.000000
vn 0.000000 0.000000 1.000000
vn 0.000000 1.000000 0.000000
vn 0.000000 1.000000 0.000000
vn -1.000000 0.000000 0.000000
vn -1.000000 0.000000 0.000000
vn -1.000000 0.000000 0.000000
vn -1.000000 0.000000 0.000000
vn 0.000000 -1.000000 0.000000
vn 0.000000 -1.000000 0.000000
vn 0.000000 -1.000000 0.000000
vn 0.000000 -1.000000 0.000000
vn 1.000000 0.000000 0.000000
vn 1.000000 0.000000 0.000000
vn 1.000000 0.000000 0.000000
vn 1.000000 0.000000 0.000000
vn 0.000000 1.000000 0.000000
vn 0.000000 1.000000 0.000000
vn 0.000000 0.000000 1.000000
vn 0.000000 0.000000 1.000000
vn 0.000000 0.000000 1.000000
vn 0.000000 0.000000 1.000000
vn 0.000000 -1.000000 0.000000
vn 0.000000 -1.000000 0.000000
vn 0.000000 -1.000000 0.000000
vn 0.000000 -1.000000 0.000000
vn 0.000000 0.000000 -1.000000
vn 0.000000 0.000000 -1.000000
vn 0.000000 0.000000 -1.000000
vn 0.000000 0.000000 -1.000000
vn 0.000000 1.000000 0.000000
vn 0.000000 1.000000 0.000000
s off
g polySurface8 polySurface7
usemtl lambert17SG
f 1/1/1 2/2/2 4/3/3 3/4/4
f 5/5/5 6/6/6 8/7/7 7/8/8
f 7/8/9 8/7/10 2/2/11 1/1/12
f 2/2/13 8/7/14 6/6/15 4/3/16
f 7/8/17 1/1/18 3/4/19 5/5/20
s 1
f 3/4/21 4/3/22 9/9/23 10/10/24
f 4/3/22 6/6/25 11/11/26 9/9/23
f 6/6/25 5/5/27 12/12/28 11/11/26
f 5/5/27 3/4/21 10/10/24 12/12/28
s off
f 10/10/29 9/9/30 13/13/31 14/14/32
f 9/9/33 11/11/34 15/15/35 13/13/36
f 11/11/37 12/12/38 16/16/39 15/15/40
f 12/12/41 10/10/42 14/14/43 16/16/44
s 2
f 14/14/45 13/13/46 18/17/47 17/18/48 24/19/49 23/20/50
f 13/13/51 15/15/52 28/21/53 27/22/54 19/23/55 18/17/47
f 15/15/56 16/16/57 33/24/58 32/25/59 29/26/60 28/21/53
f 16/16/61 14/14/62 23/20/50 22/27/63 34/28/64 33/24/58
s off
f 37/29/65 38/30/66 39/31/67 40/32/68
f 41/33/69 42/34/70 43/35/71 44/36/72
f 45/37/73 46/38/74 47/39/75 48/40/76
f 49/41/77 50/42/78 51/43/79 52/44/80
s 5
f 25/45/81 26/46/82 21/47/83 20/48/84 31/49/85 30/50/86 36/51/87 35/52/88
s off
f 17/18/89 19/23/90 20/48/91 21/47/92
f 22/27/93 24/19/94 26/46/95 25/45/96
f 27/22/97 29/26/98 30/50/99 31/49/100
f 32/25/101 34/28/102 35/52/103 36/51/104
s 2
f 17/18/48 18/17/47 19/23/55
f 22/27/63 23/20/50 24/19/49
f 27/22/54 28/21/53 29/26/60
f 32/25/59 33/24/58 34/28/64
s off
f 26/46/105 24/19/106 38/30/107 37/29/108
f 24/19/109 17/18/110 39/31/111 38/30/112
f 17/18/113 21/47/114 40/32/115 39/31/116
s 5
f 21/47/83 26/46/82 37/29/117 40/32/118
s off
f 20/48/119 19/23/120 42/34/121 41/33/122
f 19/23/123 27/22/124 43/35/125 42/34/126
f 27/22/127 31/49/128 44/36/129 43/35/130
s 5
f 31/49/85 20/48/84 41/33/131 44/36/132
s off
f 30/50/133 29/26/134 46/38/135 45/37/136
f 29/26/137 32/25/138 47/39/139 46/38/140
f 32/25/141 36/51/142 48/40/143 47/39/144
s 5
f 36/51/87 30/50/86 45/37/145 48/40/146
s off
f 35/52/147 34/28/148 50/42/149 49/41/150
f 34/28/151 22/27/152 51/43/153 50/42/154
f 22/27/155 25/45/156 52/44/157 51/43/158
s 5
f 25/45/81 35/52/88 49/41/159 52/44/160
